<svg xmlns="http://www.w3.org/2000/svg" viewBox="0 0 720 720" role="img" aria-labelledby="title desc">
  <title id="title">Colección de maquillaje sin rostros</title>
  <desc id="desc">Disposición generativa de brochas y paletas abstractas sin presencia de personas.</desc>
  <defs>
    <linearGradient id="bg" x1="0%" y1="0%" x2="100%" y2="100%">
      <stop offset="0%" stop-color="#0f172a"/>
      <stop offset="100%" stop-color="#1e1b4b"/>
    </linearGradient>
    <linearGradient id="palette" x1="0%" y1="0%" x2="100%" y2="0%">
      <stop offset="0%" stop-color="#f97316"/>
      <stop offset="100%" stop-color="#f472b6"/>
    </linearGradient>
    <linearGradient id="brush" x1="0%" y1="0%" x2="0%" y2="100%">
      <stop offset="0%" stop-color="#38bdf8"/>
      <stop offset="100%" stop-color="#6366f1"/>
    </linearGradient>
  </defs>
  <rect width="720" height="720" fill="url(#bg)"/>
  <g opacity="0.25" stroke="#818cf8" stroke-width="4" fill="none">
    <circle cx="200" cy="220" r="150"/>
    <circle cx="500" cy="200" r="150"/>
    <circle cx="360" cy="520" r="210"/>
  </g>
  <g transform="translate(140 140)">
    <rect x="80" y="260" width="360" height="160" rx="50" fill="url(#palette)"/>
    <rect x="120" y="300" width="80" height="80" rx="24" fill="#fde68a"/>
    <rect x="240" y="300" width="80" height="80" rx="24" fill="#f9a8d4"/>
    <rect x="360" y="300" width="80" height="80" rx="24" fill="#38bdf8"/>
    <path d="M120 260C120 200 200 140 260 140C320 140 400 200 400 260" stroke="#c084fc" stroke-width="16" stroke-linecap="round" fill="none"/>
    <g transform="translate(360 20)">
      <rect x="0" y="0" width="60" height="220" rx="24" fill="url(#brush)"/>
      <rect x="-20" y="200" width="100" height="60" rx="30" fill="#f1f5f9"/>
      <rect x="10" y="10" width="40" height="80" rx="16" fill="#bae6fd"/>
    </g>
    <g transform="translate(40 40)">
      <rect x="0" y="0" width="70" height="240" rx="30" fill="#fb7185"/>
      <rect x="10" y="20" width="50" height="140" rx="20" fill="#fde68a"/>
      <rect x="-30" y="220" width="130" height="60" rx="30" fill="#0ea5e9"/>
    </g>
    <path d="M80 420C160 380 320 380 400 420" stroke="#fda4af" stroke-width="12" stroke-linecap="round" stroke-dasharray="16 18"/>
  </g>
</svg>
