<svg xmlns="http://www.w3.org/2000/svg" viewBox="0 0 720 720" role="img" aria-labelledby="title desc">
  <title id="title">Colección urbana sin rostro</title>
  <desc id="desc">Siluetas de maniquíes con prendas geométricas sin mostrar caras humanas.</desc>
  <defs>
    <linearGradient id="bg" x1="0%" y1="0%" x2="100%" y2="100%">
      <stop offset="0%" stop-color="#0f172a"/>
      <stop offset="100%" stop-color="#312e81"/>
    </linearGradient>
    <linearGradient id="dress" x1="0%" y1="0%" x2="100%" y2="100%">
      <stop offset="0%" stop-color="#f472b6"/>
      <stop offset="100%" stop-color="#f97316"/>
    </linearGradient>
    <linearGradient id="jacket" x1="0%" y1="0%" x2="100%" y2="100%">
      <stop offset="0%" stop-color="#22d3ee"/>
      <stop offset="100%" stop-color="#3b82f6"/>
    </linearGradient>
  </defs>
  <rect width="720" height="720" fill="url(#bg)"/>
  <g opacity="0.3" stroke="#38bdf8" stroke-width="3" fill="none">
    <circle cx="180" cy="200" r="140"/>
    <circle cx="540" cy="220" r="160"/>
    <circle cx="360" cy="520" r="220"/>
  </g>
  <g transform="translate(120 120)" fill="none" stroke-linecap="round">
    <path d="M120 160C120 100 170 60 220 60C270 60 320 100 320 160V260C320 320 270 360 220 360C170 360 120 320 120 260Z" fill="url(#dress)" stroke="#fde68a" stroke-width="8"/>
    <path d="M320 160C320 120 360 80 400 80C440 80 480 120 480 160V260C480 300 460 340 420 360C380 380 340 360 320 320Z" fill="url(#jacket)" stroke="#e0f2fe" stroke-width="8"/>
    <line x1="220" y1="60" x2="220" y2="20" stroke="#e0f2fe" stroke-width="12"/>
    <line x1="400" y1="80" x2="400" y2="20" stroke="#facc15" stroke-width="12"/>
    <path d="M120 240C180 220 260 220 320 240" stroke="#f8fafc" stroke-width="10"/>
    <path d="M320 260C360 240 420 240 460 260" stroke="#bae6fd" stroke-width="8"/>
  </g>
</svg>
