<svg xmlns="http://www.w3.org/2000/svg" viewBox="0 0 720 720" role="img" aria-labelledby="title desc">
  <title id="title">Colección de tendencias sin rostros</title>
  <desc id="desc">Formas geométricas y textiles futuristas sin mostrar personas.</desc>
  <defs>
    <linearGradient id="bg" x1="0%" y1="0%" x2="100%" y2="100%">
      <stop offset="0%" stop-color="#111827"/>
      <stop offset="100%" stop-color="#1e1b4b"/>
    </linearGradient>
    <linearGradient id="wave" x1="0%" y1="0%" x2="100%" y2="0%">
      <stop offset="0%" stop-color="#f97316"/>
      <stop offset="100%" stop-color="#6366f1"/>
    </linearGradient>
    <linearGradient id="blocks" x1="0%" y1="0%" x2="100%" y2="100%">
      <stop offset="0%" stop-color="#22d3ee"/>
      <stop offset="100%" stop-color="#f472b6"/>
    </linearGradient>
  </defs>
  <rect width="720" height="720" fill="url(#bg)"/>
  <g opacity="0.2" stroke="#38bdf8" stroke-width="4" fill="none">
    <circle cx="200" cy="220" r="160"/>
    <circle cx="520" cy="200" r="150"/>
    <circle cx="360" cy="520" r="220"/>
  </g>
  <g transform="translate(120 160)">
    <path d="M0 260C100 200 220 200 320 260C420 320 540 320 640 260" stroke="url(#wave)" stroke-width="26" stroke-linecap="round" fill="none"/>
    <path d="M40 320C140 260 260 260 360 320C460 380 540 380 620 320" stroke="#0ea5e9" stroke-width="14" stroke-linecap="round" stroke-dasharray="22 18"/>
    <g transform="translate(160 40)">
      <rect x="0" y="0" width="120" height="160" rx="30" fill="url(#blocks)"/>
      <rect x="140" y="40" width="120" height="120" rx="28" fill="#f59e0b"/>
      <rect x="80" y="180" width="200" height="80" rx="40" fill="#ec4899"/>
    </g>
    <g transform="translate(40 80)" opacity="0.8">
      <rect x="0" y="0" width="120" height="120" rx="24" fill="#22d3ee"/>
      <rect x="160" y="-40" width="160" height="160" rx="30" fill="#38bdf8" opacity="0.6"/>
      <rect x="320" y="-20" width="120" height="200" rx="36" fill="#fda4af" opacity="0.6"/>
    </g>
    <g transform="translate(360 260)">
      <path d="M0 0L160 0L200 80L40 80Z" fill="#1f2937" opacity="0.6"/>
      <path d="M40 80L200 80L160 160L0 160Z" fill="#a855f7" opacity="0.7"/>
    </g>
  </g>
</svg>
