<svg xmlns="http://www.w3.org/2000/svg" viewBox="0 0 640 720" role="img" aria-labelledby="title desc">
  <title id="title">Color audaz sin rostro</title>
  <desc id="desc">Silueta abstracta con bloques de color vibrantes sin mostrar caras humanas.</desc>
  <defs>
    <linearGradient id="bg" x1="0%" y1="0%" x2="100%" y2="100%">
      <stop offset="0%" stop-color="#1f2937"/>
      <stop offset="100%" stop-color="#3730a3"/>
    </linearGradient>
    <linearGradient id="blockA" x1="0%" y1="0%" x2="100%" y2="100%">
      <stop offset="0%" stop-color="#f97316"/>
      <stop offset="100%" stop-color="#fbbf24"/>
    </linearGradient>
    <linearGradient id="blockB" x1="0%" y1="0%" x2="100%" y2="100%">
      <stop offset="0%" stop-color="#ec4899"/>
      <stop offset="100%" stop-color="#a855f7"/>
    </linearGradient>
  </defs>
  <rect width="640" height="720" fill="url(#bg)"/>
  <g opacity="0.25" stroke="#38bdf8" stroke-width="4" fill="none">
    <circle cx="320" cy="220" r="150"/>
    <circle cx="320" cy="520" r="220"/>
  </g>
  <g transform="translate(160 140)">
    <path d="M60 220C60 150 130 90 200 90C270 90 340 150 340 220V340C340 410 270 470 200 470C130 470 60 410 60 340Z" fill="url(#blockA)"/>
    <path d="M60 280C120 240 280 240 340 280V360C340 430 270 470 200 470C130 470 60 430 60 360Z" fill="url(#blockB)" opacity="0.85"/>
    <path d="M200 90V30" stroke="#f8fafc" stroke-width="14" stroke-linecap="round"/>
    <path d="M100 240C150 220 250 220 300 240" stroke="#fde68a" stroke-width="12" stroke-linecap="round"/>
    <path d="M120 380C170 360 230 360 280 380" stroke="#f1f5f9" stroke-width="10" stroke-dasharray="20 18"/>
  </g>
</svg>
