<svg xmlns="http://www.w3.org/2000/svg" viewBox="0 0 640 720" role="img" aria-labelledby="title desc">
  <title id="title">Iluminación de belleza sin rostro</title>
  <desc id="desc">Disposición de cosméticos resplandecientes sin mostrar personas.</desc>
  <defs>
    <linearGradient id="bg" x1="0%" y1="0%" x2="100%" y2="100%">
      <stop offset="0%" stop-color="#1f2937"/>
      <stop offset="100%" stop-color="#312e81"/>
    </linearGradient>
    <linearGradient id="bottle" x1="0%" y1="0%" x2="100%" y2="100%">
      <stop offset="0%" stop-color="#fbbf24"/>
      <stop offset="100%" stop-color="#f97316"/>
    </linearGradient>
    <linearGradient id="compact" x1="0%" y1="0%" x2="100%" y2="0%">
      <stop offset="0%" stop-color="#f472b6"/>
      <stop offset="100%" stop-color="#22d3ee"/>
    </linearGradient>
  </defs>
  <rect width="640" height="720" fill="url(#bg)"/>
  <g opacity="0.25" stroke="#f472b6" stroke-width="3" fill="none">
    <circle cx="320" cy="220" r="160"/>
    <circle cx="320" cy="520" r="220"/>
  </g>
  <g transform="translate(160 140)">
    <rect x="40" y="260" width="320" height="160" rx="60" fill="url(#compact)"/>
    <rect x="80" y="220" width="100" height="100" rx="30" fill="#f8fafc" opacity="0.7"/>
    <rect x="200" y="220" width="100" height="100" rx="30" fill="#f1f5f9" opacity="0.9"/>
    <rect x="320" y="180" width="80" height="200" rx="30" fill="url(#bottle)"/>
    <path d="M120 200C120 150 200 100 260 100C320 100 400 150 400 200" stroke="#fde68a" stroke-width="14" stroke-linecap="round" fill="none"/>
    <path d="M80 360C140 320 280 320 340 360" stroke="#38bdf8" stroke-width="12" stroke-linecap="round" stroke-dasharray="18 18"/>
    <path d="M260 140L300 40" stroke="#c4b5fd" stroke-width="16" stroke-linecap="round"/>
    <path d="M120 140L80 40" stroke="#a855f7" stroke-width="16" stroke-linecap="round"/>
  </g>
</svg>
