<svg xmlns="http://www.w3.org/2000/svg" viewBox="0 0 640 720" role="img" aria-labelledby="title desc">
  <title id="title">Elegancia nocturna sin rostro</title>
  <desc id="desc">Vestido estilizado sobre maniquí abstracto con luces suaves sin mostrar caras humanas.</desc>
  <defs>
    <linearGradient id="bg" x1="0%" y1="0%" x2="100%" y2="100%">
      <stop offset="0%" stop-color="#111827"/>
      <stop offset="100%" stop-color="#312e81"/>
    </linearGradient>
    <linearGradient id="dress" x1="0%" y1="0%" x2="100%" y2="0%">
      <stop offset="0%" stop-color="#6366f1"/>
      <stop offset="100%" stop-color="#a855f7"/>
    </linearGradient>
  </defs>
  <rect width="640" height="720" fill="url(#bg)"/>
  <g opacity="0.3" stroke="#c084fc" stroke-width="4" fill="none">
    <circle cx="320" cy="200" r="150"/>
    <circle cx="320" cy="520" r="220"/>
  </g>
  <g transform="translate(160 120)">
    <path d="M80 220C80 160 140 100 200 100C260 100 320 160 320 220V320C320 380 260 440 200 440C140 440 80 380 80 320Z" fill="url(#dress)"/>
    <path d="M200 100V40" stroke="#f8fafc" stroke-width="12" stroke-linecap="round"/>
    <path d="M120 240C160 220 240 220 280 240" stroke="#fde68a" stroke-width="12" stroke-linecap="round"/>
    <path d="M100 360C160 340 240 340 300 360" stroke="#fbbf24" stroke-width="10" stroke-dasharray="18 16"/>
    <circle cx="200" cy="320" r="40" fill="#f472b6" opacity="0.6"/>
  </g>
</svg>
