<svg xmlns="http://www.w3.org/2000/svg" viewBox="0 0 640 720" role="img" aria-labelledby="title desc">
  <title id="title">Casual chic sin rostro</title>
  <desc id="desc">Maniquí abstracto con prendas relajadas y accesorios sin mostrar caras humanas.</desc>
  <defs>
    <linearGradient id="bg" x1="0%" y1="0%" x2="100%" y2="100%">
      <stop offset="0%" stop-color="#0f172a"/>
      <stop offset="100%" stop-color="#1e293b"/>
    </linearGradient>
    <linearGradient id="top" x1="0%" y1="0%" x2="100%" y2="100%">
      <stop offset="0%" stop-color="#22d3ee"/>
      <stop offset="100%" stop-color="#2dd4bf"/>
    </linearGradient>
    <linearGradient id="pants" x1="0%" y1="0%" x2="100%" y2="0%">
      <stop offset="0%" stop-color="#475569"/>
      <stop offset="100%" stop-color="#94a3b8"/>
    </linearGradient>
  </defs>
  <rect width="640" height="720" fill="url(#bg)"/>
  <g opacity="0.3" stroke="#38bdf8" stroke-width="4" fill="none">
    <circle cx="320" cy="200" r="140"/>
    <circle cx="320" cy="520" r="220"/>
  </g>
  <g transform="translate(160 140)">
    <path d="M80 200C80 140 140 80 200 80C260 80 320 140 320 200V280C320 340 260 400 200 400C140 400 80 340 80 280Z" fill="url(#top)"/>
    <path d="M80 320C120 300 280 300 320 320V400C320 460 260 500 200 500C140 500 80 460 80 400Z" fill="url(#pants)"/>
    <path d="M200 80V20" stroke="#f8fafc" stroke-width="12" stroke-linecap="round"/>
    <path d="M120 240C160 230 240 230 280 240" stroke="#facc15" stroke-width="10" stroke-linecap="round"/>
    <circle cx="200" cy="340" r="36" fill="#fbbf24" opacity="0.7"/>
  </g>
</svg>
