<svg xmlns="http://www.w3.org/2000/svg" viewBox="0 0 480 360" role="img" aria-labelledby="title desc">
  <title id="title">Casual chic sin modelos</title>
  <desc id="desc">Composición realista con blazer beige, jeans doblados y bolso nude sobre fondo suave sin personas.</desc>
  <defs>
    <linearGradient id="gal-casual-bg" x1="0%" y1="0%" x2="100%" y2="100%">
      <stop offset="0%" stop-color="#ede8e2"/>
      <stop offset="100%" stop-color="#d2c6bc"/>
    </linearGradient>
    <radialGradient id="gal-casual-light" cx="55%" cy="30%" r="70%">
      <stop offset="0%" stop-color="#ffffff" stop-opacity="0.8"/>
      <stop offset="100%" stop-color="#ffffff" stop-opacity="0"/>
    </radialGradient>
    <linearGradient id="gal-casual-blazer" x1="0%" y1="0%" x2="0%" y2="100%">
      <stop offset="0%" stop-color="#f7e3c5"/>
      <stop offset="100%" stop-color="#cba379"/>
    </linearGradient>
    <linearGradient id="gal-casual-jeans" x1="0%" y1="0%" x2="0%" y2="100%">
      <stop offset="0%" stop-color="#7ea4c3"/>
      <stop offset="100%" stop-color="#395372"/>
    </linearGradient>
    <filter id="gal-casual-shadow" x="-25%" y="-25%" width="150%" height="150%">
      <feGaussianBlur in="SourceAlpha" stdDeviation="9" result="blur"/>
      <feOffset dy="16" result="offset"/>
      <feComponentTransfer>
        <feFuncA type="linear" slope="0.28"/>
      </feComponentTransfer>
      <feMerge>
        <feMergeNode in="offset"/>
        <feMergeNode in="SourceGraphic"/>
      </feMerge>
    </filter>
  </defs>
  <rect width="480" height="360" fill="url(#gal-casual-bg)"/>
  <rect width="480" height="360" fill="url(#gal-casual-light)"/>
  <g filter="url(#gal-casual-shadow)">
    <ellipse cx="240" cy="280" rx="190" ry="46" fill="rgba(150,130,110,0.3)"/>
  </g>
  <g filter="url(#gal-casual-shadow)">
    <path d="M150 170C150 140 182 120 220 120H300C338 120 370 140 370 170V240C370 270 338 300 300 300H220C182 300 150 270 150 240Z" fill="url(#gal-casual-blazer)"/>
    <path d="M170 160C170 144 190 132 220 132H300C330 132 350 144 350 160V210C330 218 304 222 260 222H220C190 222 170 214 170 198Z" fill="#fef2df" opacity="0.7"/>
  </g>
  <g filter="url(#gal-casual-shadow)">
    <rect x="190" y="220" width="160" height="60" rx="22" fill="#f1d9bf"/>
    <rect x="200" y="228" width="140" height="44" rx="18" fill="#fee8d0" opacity="0.8"/>
    <rect x="212" y="208" width="24" height="28" rx="12" fill="#f9ddc3"/>
    <rect x="304" y="208" width="24" height="28" rx="12" fill="#f9ddc3"/>
  </g>
  <g filter="url(#gal-casual-shadow)">
    <rect x="150" y="240" width="120" height="60" rx="20" fill="url(#gal-casual-jeans)"/>
    <rect x="160" y="248" width="100" height="44" rx="16" fill="#4f6c8c"/>
    <rect x="168" y="236" width="84" height="12" rx="6" fill="#90b3ce" opacity="0.7"/>
  </g>
</svg>
