<svg xmlns="http://www.w3.org/2000/svg" viewBox="0 0 640 720" role="img" aria-labelledby="title desc">
  <title id="title">Accesorios destacados sin rostro</title>
  <desc id="desc">Bolsos y joyería abstracta en exhibición sin mostrar personas.</desc>
  <defs>
    <linearGradient id="bg" x1="0%" y1="0%" x2="100%" y2="100%">
      <stop offset="0%" stop-color="#111827"/>
      <stop offset="100%" stop-color="#1e1b4b"/>
    </linearGradient>
    <linearGradient id="bag" x1="0%" y1="0%" x2="100%" y2="100%">
      <stop offset="0%" stop-color="#fb7185"/>
      <stop offset="100%" stop-color="#f472b6"/>
    </linearGradient>
    <linearGradient id="jewel" x1="0%" y1="0%" x2="100%" y2="0%">
      <stop offset="0%" stop-color="#fbbf24"/>
      <stop offset="100%" stop-color="#f97316"/>
    </linearGradient>
  </defs>
  <rect width="640" height="720" fill="url(#bg)"/>
  <g opacity="0.25" stroke="#38bdf8" stroke-width="4" fill="none">
    <circle cx="320" cy="220" r="150"/>
    <circle cx="320" cy="520" r="220"/>
  </g>
  <g transform="translate(160 160)">
    <path d="M60 260C60 200 110 150 170 150H310C370 150 420 200 420 260C420 320 370 370 310 370H170C110 370 60 320 60 260Z" fill="url(#bag)"/>
    <rect x="120" y="140" width="240" height="80" rx="40" fill="#fecdd3"/>
    <path d="M160 150C160 110 200 70 240 70C280 70 320 110 320 150" stroke="#fde68a" stroke-width="16" stroke-linecap="round" fill="none"/>
    <g transform="translate(320 220)">
      <circle cx="90" cy="90" r="60" stroke="url(#jewel)" stroke-width="20" fill="none"/>
      <circle cx="90" cy="90" r="26" fill="#fde68a"/>
    </g>
    <path d="M80 320C140 280 260 280 320 320" stroke="#22d3ee" stroke-width="12" stroke-linecap="round" stroke-dasharray="18 18"/>
    <path d="M40 380C120 340 280 340 360 380" stroke="#0ea5e9" stroke-width="10" stroke-linecap="round"/>
  </g>
</svg>
