<svg xmlns="http://www.w3.org/2000/svg" viewBox="0 0 900 720" role="img" aria-labelledby="title desc">
  <title id="title">Ilustración de accesorios urbanos</title>
  <desc id="desc">Collage generativo de bolsos y joyería estilizada sin rostros humanos visibles.</desc>
  <defs>
    <linearGradient id="bg" x1="0%" y1="0%" x2="100%" y2="100%">
      <stop offset="0%" stop-color="#111827"/>
      <stop offset="100%" stop-color="#312e81"/>
    </linearGradient>
    <linearGradient id="bag" x1="0%" y1="0%" x2="100%" y2="100%">
      <stop offset="0%" stop-color="#f87171"/>
      <stop offset="100%" stop-color="#fb7185"/>
    </linearGradient>
    <linearGradient id="ring" x1="0%" y1="0%" x2="100%" y2="0%">
      <stop offset="0%" stop-color="#facc15"/>
      <stop offset="100%" stop-color="#f97316"/>
    </linearGradient>
    <linearGradient id="glasses" x1="0%" y1="0%" x2="100%" y2="100%">
      <stop offset="0%" stop-color="#4ade80"/>
      <stop offset="100%" stop-color="#22d3ee"/>
    </linearGradient>
  </defs>
  <rect width="900" height="720" fill="url(#bg)"/>
  <g opacity="0.25" stroke="#818cf8" stroke-width="4" fill="none">
    <circle cx="220" cy="200" r="160"/>
    <circle cx="720" cy="260" r="200"/>
    <circle cx="460" cy="540" r="240"/>
  </g>
  <g transform="translate(160 160)">
    <path d="M140 260C140 200 190 150 250 150H370C430 150 480 200 480 260V360C480 420 430 470 370 470H250C190 470 140 420 140 360Z" fill="url(#bag)"/>
    <rect x="200" y="140" width="220" height="80" rx="40" fill="#fda4af"/>
    <path d="M240 150C240 110 280 70 320 70C360 70 400 110 400 150" fill="none" stroke="#fecdd3" stroke-width="18" stroke-linecap="round"/>
    <g transform="translate(420 60)">
      <circle cx="120" cy="220" r="70" stroke="url(#ring)" stroke-width="24" fill="none"/>
      <circle cx="120" cy="220" r="30" fill="#fde68a"/>
    </g>
    <g transform="translate(40 320)">
      <rect x="0" y="0" width="280" height="120" rx="60" fill="url(#glasses)" opacity="0.7"/>
      <rect x="40" y="30" width="80" height="60" rx="30" fill="#0ea5e9"/>
      <rect x="160" y="30" width="80" height="60" rx="30" fill="#2dd4bf"/>
      <rect x="130" y="40" width="20" height="40" fill="#0f172a"/>
    </g>
    <path d="M120 340C200 300 420 300 500 340" fill="none" stroke="#38bdf8" stroke-width="12" stroke-linecap="round" stroke-dasharray="18 20"/>
  </g>
  <g opacity="0.4" stroke="#f9a8d4" stroke-width="5" stroke-linecap="round">
    <path d="M160 580H760"/>
    <path d="M200 620H700"/>
  </g>
</svg>
