<svg xmlns="http://www.w3.org/2000/svg" viewBox="0 0 900 720" role="img" aria-labelledby="title desc">
  <title id="title">Ilustración de laboratorio de belleza</title>
  <desc id="desc">Composición generativa con frascos y pinceles estilizados sin presencia de rostros humanos.</desc>
  <defs>
    <linearGradient id="bg" x1="0%" y1="0%" x2="100%" y2="100%">
      <stop offset="0%" stop-color="#0f172a"/>
      <stop offset="100%" stop-color="#1e1b4b"/>
    </linearGradient>
    <linearGradient id="bottle" x1="0%" y1="0%" x2="0%" y2="100%">
      <stop offset="0%" stop-color="#f97316"/>
      <stop offset="100%" stop-color="#fb7185"/>
    </linearGradient>
    <linearGradient id="serum" x1="0%" y1="0%" x2="100%" y2="100%">
      <stop offset="0%" stop-color="#38bdf8"/>
      <stop offset="100%" stop-color="#8b5cf6"/>
    </linearGradient>
    <linearGradient id="palette" x1="0%" y1="0%" x2="100%" y2="0%">
      <stop offset="0%" stop-color="#fbbf24"/>
      <stop offset="100%" stop-color="#22d3ee"/>
    </linearGradient>
  </defs>
  <rect width="900" height="720" fill="url(#bg)"/>
  <g opacity="0.3" stroke="#818cf8" stroke-width="3" fill="none">
    <circle cx="140" cy="200" r="120"/>
    <circle cx="780" cy="180" r="160"/>
    <circle cx="420" cy="540" r="220"/>
    <line x1="80" y1="520" x2="820" y2="520"/>
  </g>
  <g transform="translate(200 180)">
    <rect x="60" y="220" width="140" height="220" rx="30" fill="url(#bottle)"/>
    <rect x="280" y="160" width="120" height="280" rx="40" fill="url(#serum)"/>
    <rect x="440" y="260" width="220" height="140" rx="40" fill="url(#palette)"/>
    <circle cx="160" cy="220" r="50" fill="#fed7aa" opacity="0.8"/>
    <rect x="305" y="120" width="70" height="40" rx="12" fill="#c4b5fd"/>
    <rect x="520" y="220" width="60" height="120" rx="20" fill="#0ea5e9" opacity="0.8"/>
    <path d="M520 260L660 220" stroke="#f472b6" stroke-width="10" stroke-linecap="round"/>
    <path d="M120 220L40 40" stroke="#f8fafc" stroke-width="16" stroke-linecap="round"/>
    <path d="M360 220L440 60" stroke="#c084fc" stroke-width="16" stroke-linecap="round"/>
  </g>
  <g opacity="0.4" stroke="#38bdf8" stroke-width="6" stroke-linecap="round">
    <path d="M140 580H760"/>
    <path d="M200 620H700"/>
  </g>
</svg>
